<?xml version="1.0" encoding="UTF-8"?>
<svg width="700pt" height="700pt" version="1.1" viewBox="0 0 700 700" xmlns="http://www.w3.org/2000/svg">
 <path d="m318.5 439.25c46.305 0 88.762-16.625 121.87-44.172l102.02 102.02 24.746-24.746-102.02-102.02c27.508-33.07 44.133-75.562 44.133-121.83 0-105.18-85.574-190.71-190.75-190.71s-190.75 85.539-190.75 190.71 85.574 190.75 190.75 190.75zm0-346.5c85.891 0 155.75 69.859 155.75 155.71 0 85.891-69.859 155.75-155.75 155.75-85.855 0-155.71-69.859-155.71-155.75-0.035156-85.855 69.824-155.71 155.71-155.71z"/>
</svg>
